{
    "asset" : {
        "generator" : "Khronos glTF Blender I/O v3.4.50",
        "version" : "2.0"
    },
    "scene" : 0,
    "scenes" : [
        {
            "name" : "Scene",
            "nodes" : [
                0
            ]
        }
    ],
    "nodes" : [
        {
            "mesh" : 0,
            "name" : "asteroid"
        }
    ],
    "materials" : [
        {
            "doubleSided" : true,
            "name" : "Surface.002",
            "pbrMetallicRoughness" : {
                "baseColorFactor" : [
                    0.800000011920929,
                    0.800000011920929,
                    0.800000011920929,
                    1
                ],
                "metallicFactor" : 0,
                "roughnessFactor" : 0.5
            }
        }
    ],
    "meshes" : [
        {
            "name" : "asteroid_sphere",
            "primitives" : [
                {
                    "attributes" : {
                        "POSITION" : 0,
                        "TEXCOORD_0" : 1,
                        "NORMAL" : 2
                    },
                    "indices" : 3,
                    "material" : 0
                }
            ]
        }
    ],
    "accessors" : [
        {
            "bufferView" : 0,
            "componentType" : 5126,
            "count" : 439,
            "max" : [
                3.651946544647217,
                3.5918080806732178,
                3.5747716426849365
            ],
            "min" : [
                -3.8057193756103516,
                -3.4634838104248047,
                -3.8028602600097656
            ],
            "type" : "VEC3"
        },
        {
            "bufferView" : 1,
            "componentType" : 5126,
            "count" : 439,
            "type" : "VEC2"
        },
        {
            "bufferView" : 2,
            "componentType" : 5126,
            "count" : 439,
            "type" : "VEC3"
        },
        {
            "bufferView" : 3,
            "componentType" : 5123,
            "count" : 2280,
            "type" : "SCALAR"
        }
    ],
    "bufferViews" : [
        {
            "buffer" : 0,
            "byteLength" : 5268,
            "byteOffset" : 0,
            "target" : 34962
        },
        {
            "buffer" : 0,
            "byteLength" : 3512,
            "byteOffset" : 5268,
            "target" : 34962
        },
        {
            "buffer" : 0,
            "byteLength" : 5268,
            "byteOffset" : 8780,
            "target" : 34962
        },
        {
            "buffer" : 0,
            "byteLength" : 4560,
            "byteOffset" : 14048,
            "target" : 34963
        }
    ],
    "buffers" : [
        {
            "byteLength" : 18608,
            "uri" : "data:application/octet-stream;base64,"
        }
    ]
}
